<svg xmlns="http://www.w3.org/2000/svg" xmlns:xlink="http://www.w3.org/1999/xlink" width="817" zoomAndPan="magnify" viewBox="0 0 612.75 263.250001" height="351" preserveAspectRatio="xMidYMid meet" version="1.0"><defs><clipPath id="ed9adf627f"><path d="M 0.746094 0 L 320.671875 0 L 320.671875 262.503906 L 0.746094 262.503906 Z M 0.746094 0 " clip-rule="nonzero"/></clipPath><clipPath id="2f35229651"><path d="M 11.28125 -4.855469 L 304.132812 -4.855469 C 313.21875 -4.855469 320.585938 2.511719 320.585938 11.597656 L 320.585938 246.050781 C 320.585938 255.136719 313.21875 262.503906 304.132812 262.503906 L 11.28125 262.503906 C 2.195312 262.503906 -5.171875 255.136719 -5.171875 246.050781 L -5.171875 11.597656 C -5.171875 2.511719 2.195312 -4.855469 11.28125 -4.855469 Z M 11.28125 -4.855469 " clip-rule="nonzero"/></clipPath><clipPath id="995f3edf6d"><path d="M 0.746094 0 L 320.671875 0 L 320.671875 262.503906 L 0.746094 262.503906 Z M 0.746094 0 " clip-rule="nonzero"/></clipPath><clipPath id="3adb0bcc2c"><path d="M 11.28125 -4.855469 L 304.132812 -4.855469 C 313.21875 -4.855469 320.585938 2.511719 320.585938 11.597656 L 320.585938 246.050781 C 320.585938 255.136719 313.21875 262.503906 304.132812 262.503906 L 11.28125 262.503906 C 2.195312 262.503906 -5.171875 255.136719 -5.171875 246.050781 L -5.171875 11.597656 C -5.171875 2.511719 2.195312 -4.855469 11.28125 -4.855469 Z M 11.28125 -4.855469 " clip-rule="nonzero"/></clipPath><clipPath id="1f05410527"><rect x="0" width="321" y="0" height="263"/></clipPath><clipPath id="a6385c050a"><path d="M 306.25 0 L 611.753906 0 L 611.753906 214.203125 L 306.25 214.203125 Z M 306.25 0 " clip-rule="nonzero"/></clipPath><clipPath id="8c789fbddf"><path d="M 312.234375 -4.855469 L 605.773438 -4.855469 C 609.078125 -4.855469 611.753906 -2.175781 611.753906 1.128906 L 611.753906 208.21875 C 611.753906 211.523438 609.078125 214.203125 605.773438 214.203125 L 312.234375 214.203125 C 308.929688 214.203125 306.25 211.523438 306.25 208.21875 L 306.25 1.128906 C 306.25 -2.175781 308.929688 -4.855469 312.234375 -4.855469 Z M 312.234375 -4.855469 " clip-rule="nonzero"/></clipPath><clipPath id="bae48f63fd"><path d="M 0.25 0 L 305.753906 0 L 305.753906 214.203125 L 0.25 214.203125 Z M 0.25 0 " clip-rule="nonzero"/></clipPath><clipPath id="e9fef549a1"><path d="M 6.234375 -4.855469 L 299.773438 -4.855469 C 303.078125 -4.855469 305.753906 -2.175781 305.753906 1.128906 L 305.753906 208.21875 C 305.753906 211.523438 303.078125 214.203125 299.773438 214.203125 L 6.234375 214.203125 C 2.929688 214.203125 0.25 211.523438 0.25 208.21875 L 0.25 1.128906 C 0.25 -2.175781 2.929688 -4.855469 6.234375 -4.855469 Z M 6.234375 -4.855469 " clip-rule="nonzero"/></clipPath><clipPath id="6c3e2da0bd"><rect x="0" width="306" y="0" height="215"/></clipPath><clipPath id="23b61eda72"><path d="M 273.582031 165.070312 L 352.332031 165.070312 L 352.332031 243.820312 L 273.582031 243.820312 Z M 273.582031 165.070312 " clip-rule="nonzero"/></clipPath><clipPath id="1c8f128a9d"><path d="M 273.582031 243.820312 C 273.582031 223.082031 281.984375 202.800781 296.648438 188.136719 C 311.3125 173.46875 331.59375 165.070312 352.332031 165.070312 L 352.332031 205.246094 C 342.175781 205.246094 332.242188 209.359375 325.058594 216.542969 C 317.875 223.726562 313.757812 233.660156 313.757812 243.820312 Z M 273.582031 243.820312 " clip-rule="nonzero"/></clipPath><clipPath id="d8a8fa2cde"><path d="M 0.582031 0.0703125 L 79.332031 0.0703125 L 79.332031 78.820312 L 0.582031 78.820312 Z M 0.582031 0.0703125 " clip-rule="nonzero"/></clipPath><clipPath id="4944858a60"><path d="M 0.582031 78.820312 C 0.582031 58.082031 8.984375 37.800781 23.648438 23.136719 C 38.3125 8.46875 58.59375 0.0703125 79.332031 0.0703125 L 79.332031 40.246094 C 69.175781 40.246094 59.242188 44.359375 52.058594 51.542969 C 44.875 58.726562 40.757812 68.660156 40.757812 78.820312 Z M 0.582031 78.820312 " clip-rule="nonzero"/></clipPath><clipPath id="aecb4572ad"><rect x="0" width="80" y="0" height="79"/></clipPath></defs><g clip-path="url(#ed9adf627f)"><g clip-path="url(#2f35229651)"><g transform="matrix(1, 0, 0, 1, 0.000000000000000111, 0.000000000000027431)"><g clip-path="url(#1f05410527)"><g clip-path="url(#995f3edf6d)"><g clip-path="url(#3adb0bcc2c)"><path fill="#000000" d="M -5.171875 -4.855469 L 320.671875 -4.855469 L 320.671875 262.503906 L -5.171875 262.503906 Z M -5.171875 -4.855469 " fill-opacity="1" fill-rule="nonzero"/></g></g></g></g></g></g><g clip-path="url(#a6385c050a)"><g clip-path="url(#8c789fbddf)"><g transform="matrix(1, 0, 0, 1, 306, 0.000000000000027431)"><g clip-path="url(#6c3e2da0bd)"><g clip-path="url(#bae48f63fd)"><g clip-path="url(#e9fef549a1)"><path fill="#000000" d="M 0.25 -4.855469 L 305.734375 -4.855469 L 305.734375 214.203125 L 0.25 214.203125 Z M 0.25 -4.855469 " fill-opacity="1" fill-rule="nonzero"/></g></g></g></g></g></g><g clip-path="url(#23b61eda72)"><g clip-path="url(#1c8f128a9d)"><g transform="matrix(1, 0, 0, 1, 273, 165)"><g clip-path="url(#aecb4572ad)"><g clip-path="url(#d8a8fa2cde)"><g clip-path="url(#4944858a60)"><path fill="#000000" d="M 0.582031 0.0703125 L 79.332031 0.0703125 L 79.332031 78.820312 L 0.582031 78.820312 Z M 0.582031 0.0703125 " fill-opacity="1" fill-rule="nonzero"/></g></g></g></g></g></g></svg>